<mxfile host="65bd71144e">
    <diagram id="zjyIdyExbtTuKUGTuE-O" name="Page-1">
        <mxGraphModel dx="484" dy="394" grid="1" gridSize="10" guides="1" tooltips="1" connect="1" arrows="1" fold="1" page="1" pageScale="1" pageWidth="850" pageHeight="1100" math="0" shadow="0">
            <root>
                <mxCell id="0"/>
                <mxCell id="1" parent="0"/>
                <mxCell id="2" value="toetsencombinatie snickers ingevuld" style="rounded=0;whiteSpace=wrap;html=1;" vertex="1" parent="1">
                    <mxGeometry x="90" y="50" width="290" height="70" as="geometry"/>
                </mxCell>
                <mxCell id="3" value="geef prijs weer" style="rounded=0;whiteSpace=wrap;html=1;" vertex="1" parent="1">
                    <mxGeometry x="90" y="120" width="290" height="70" as="geometry"/>
                </mxCell>
                <mxCell id="4" value="" style="rounded=0;whiteSpace=wrap;html=1;" vertex="1" parent="1">
                    <mxGeometry x="90" y="190" width="290" height="70" as="geometry"/>
                </mxCell>
                <mxCell id="5" value="" style="triangle;whiteSpace=wrap;html=1;rotation=90;" vertex="1" parent="1">
                    <mxGeometry x="200.63" y="84.38" width="68.75" height="280" as="geometry"/>
                </mxCell>
                <mxCell id="6" value="geld wordt ingevoerd?" style="text;html=1;strokeColor=none;fillColor=none;align=center;verticalAlign=middle;whiteSpace=wrap;rounded=0;" vertex="1" parent="1">
                    <mxGeometry x="205.01" y="200" width="60" height="30" as="geometry"/>
                </mxCell>
                <mxCell id="7" value="nee" style="text;html=1;strokeColor=none;fillColor=none;align=center;verticalAlign=middle;whiteSpace=wrap;rounded=0;" vertex="1" parent="1">
                    <mxGeometry x="90" y="220" width="60" height="30" as="geometry"/>
                </mxCell>
                <mxCell id="8" value="ja" style="text;html=1;strokeColor=none;fillColor=none;align=center;verticalAlign=middle;whiteSpace=wrap;rounded=0;" vertex="1" parent="1">
                    <mxGeometry x="320" y="220" width="60" height="30" as="geometry"/>
                </mxCell>
                <mxCell id="10" value="wacht 10 seconden" style="rounded=0;whiteSpace=wrap;html=1;strokeWidth=1;" vertex="1" parent="1">
                    <mxGeometry x="90.01" y="260" width="145" height="70" as="geometry"/>
                </mxCell>
                <mxCell id="11" value="geef snickers uit" style="rounded=0;whiteSpace=wrap;html=1;strokeWidth=1;" vertex="1" parent="1">
                    <mxGeometry x="235.01" y="260" width="145" height="70" as="geometry"/>
                </mxCell>
                <mxCell id="12" value="stop met prijs weergeven, terug op startscherm" style="rounded=0;whiteSpace=wrap;html=1;strokeWidth=1;" vertex="1" parent="1">
                    <mxGeometry x="90" y="330" width="145" height="70" as="geometry"/>
                </mxCell>
                <mxCell id="13" value="geef eventueel wisselgeld" style="rounded=0;whiteSpace=wrap;html=1;strokeWidth=1;" vertex="1" parent="1">
                    <mxGeometry x="235.01" y="330" width="145" height="70" as="geometry"/>
                </mxCell>
                <mxCell id="14" value="stop met prijs weergeven, terug op startscherm" style="rounded=0;whiteSpace=wrap;html=1;strokeWidth=1;" vertex="1" parent="1">
                    <mxGeometry x="235.01" y="400" width="145" height="70" as="geometry"/>
                </mxCell>
            </root>
        </mxGraphModel>
    </diagram>
</mxfile>